<?xml version="1.0" encoding="UTF-8"?>
<svg xmlns="http://www.w3.org/2000/svg" xmlns:xlink="http://www.w3.org/1999/xlink" width="512px" height="512px" viewBox="0 0 512 512" version="1.1">
<g id="surface1">
<path style=" stroke:none;fill-rule:nonzero;fill:rgb(99.607843%,99.607843%,99.607843%);fill-opacity:1;" d="M 273 513 C 182.023438 513 91.542969 513 1.03125 513 C 1.03125 342.398438 1.03125 171.792969 1.03125 1.09375 C 171.5625 1.09375 342.121094 1.09375 512.84375 1.09375 C 512.84375 171.667969 512.84375 342.332031 512.84375 513 C 433.128906 513 353.3125 513 273 513 M 343.617188 174.085938 C 320.113281 175.0625 298.292969 181.875 277.5625 192.769531 C 273.5 194.90625 272.101562 197.398438 272.140625 202.011719 C 272.378906 229.316406 272.253906 256.625 272.253906 283.933594 C 272.253906 285.621094 272.253906 287.3125 272.253906 289.832031 C 310.191406 255.3125 355.136719 247.8125 403.355469 250.214844 C 402.984375 249 402.875 248.1875 402.507812 247.511719 C 390.070312 224.386719 377.652344 201.253906 365.050781 178.21875 C 364.257812 176.765625 362.117188 175.417969 360.449219 175.199219 C 355.195312 174.511719 349.863281 174.386719 343.617188 174.085938 M 165.964844 193.457031 C 155.722656 212.355469 145.484375 231.253906 135.113281 250.390625 C 184.03125 247.617188 228.980469 255.460938 266.753906 289.605469 C 266.925781 288.191406 267.058594 287.59375 267.058594 286.996094 C 267.070312 257.679688 267.132812 228.363281 266.914062 199.046875 C 266.902344 197.316406 264.984375 194.816406 263.3125 194.019531 C 253.875 189.507812 244.457031 184.785156 234.621094 181.300781 C 216.726562 174.957031 198.171875 172.613281 179.226562 175.175781 C 177.425781 175.417969 175.246094 176.863281 174.269531 178.402344 C 171.339844 183.027344 168.917969 187.976562 165.964844 193.457031 M 243.667969 91.070312 C 261.152344 87.070312 278.582031 87.394531 296.101562 91.117188 C 343.0625 101.09375 382.242188 142.769531 387.824219 190.363281 C 389.300781 202.949219 394.261719 213.316406 400.816406 223.949219 C 408.152344 176.847656 383.707031 114.691406 325.378906 87.714844 C 270.726562 62.441406 201.667969 76.460938 162.945312 129.535156 C 143.40625 156.316406 129.363281 210.421875 139.605469 221.941406 C 140.980469 219.585938 142.503906 217.382812 143.617188 214.984375 C 146.023438 209.796875 149.648438 205.355469 150.054688 199.027344 C 151.335938 179.070312 157.566406 160.515625 168.496094 143.746094 C 186.285156 116.441406 211.054688 98.800781 243.667969 91.070312 M 235.789062 123.070312 C 252.304688 116.558594 269.410156 114.796875 286.722656 118.230469 C 313.578125 123.5625 334.136719 138.296875 348.449219 161.695312 C 349.179688 162.894531 350.265625 164.523438 351.394531 164.710938 C 355.527344 165.402344 359.746094 165.570312 364.167969 165.953125 C 354.71875 139.019531 317.175781 100.449219 261.714844 104.234375 C 219.726562 107.097656 184.738281 137.847656 175.121094 166.050781 C 178.570312 165.671875 181.835938 164.992188 185.085938 165.054688 C 188.007812 165.109375 189.535156 163.933594 190.96875 161.566406 C 201.527344 144.078125 216.078125 131.136719 235.789062 123.070312 M 286.78125 147.4375 C 294.480469 151.585938 303.285156 154.515625 309.578125 160.214844 C 316.246094 166.257812 322.316406 168.5625 330.558594 165.671875 C 330.683594 165.628906 330.761719 165.460938 331.488281 164.671875 C 316.21875 143.828125 295.648438 132.773438 269.800781 132.472656 C 241.667969 132.144531 216.910156 148.472656 208.222656 165.640625 C 209.902344 165.871094 211.523438 166.074219 213.136719 166.3125 C 214.777344 166.554688 216.453125 167.183594 218.039062 167 C 219.890625 166.78125 222.1875 166.386719 223.394531 165.175781 C 240.957031 147.515625 261.734375 141.386719 286.78125 147.4375 M 324.746094 268.296875 C 307.734375 274.410156 292.109375 282.960938 278.347656 295.296875 C 318.859375 273.507812 361.089844 268.773438 405.21875 282.15625 C 405.21875 275.832031 405.21875 270.085938 405.21875 264.097656 C 378.089844 257.898438 351.605469 258.917969 324.746094 268.296875 M 184.460938 274.722656 C 209.457031 275.273438 233.0625 281.503906 255.746094 292.382812 C 253.890625 289.605469 251.742188 287.46875 249.269531 285.832031 C 228.410156 272.023438 205.734375 263.324219 180.675781 260.804688 C 166.4375 259.375 152.460938 260.570312 138.527344 263.144531 C 136.878906 263.449219 134.25 264.898438 134.152344 266.007812 C 133.683594 271.183594 133.945312 276.425781 133.945312 282.113281 C 150.707031 277.285156 166.902344 274.660156 184.460938 274.722656 M 417.371094 347.054688 C 422.390625 344.503906 424.46875 340.066406 422.910156 335.039062 C 421.957031 331.96875 419.140625 327.820312 416.503906 327.261719 C 410.867188 326.070312 404.800781 326.898438 398.882812 326.898438 C 398.882812 338.828125 398.882812 350.414062 398.882812 362.164062 C 401.179688 362.164062 403.234375 362.164062 405.632812 362.164062 C 405.632812 358.527344 405.484375 355.21875 405.710938 351.933594 C 405.792969 350.703125 406.742188 349.535156 407.296875 348.339844 C 408.40625 349.144531 409.835938 349.734375 410.554688 350.804688 C 412.03125 353 413.453125 355.339844 414.316406 357.824219 C 416.121094 363.03125 419.675781 363.140625 424.199219 361.988281 C 421.660156 357 419.277344 352.3125 417.371094 347.054688 M 276.308594 332.640625 C 276.308594 335.25 276.308594 337.855469 276.308594 340.617188 C 272.328125 340.617188 268.933594 340.617188 265.011719 340.617188 C 265.011719 335.789062 265.011719 331.226562 265.011719 326.714844 C 262.390625 326.714844 260.316406 326.714844 258.320312 326.714844 C 258.320312 338.761719 258.320312 350.484375 258.320312 362.183594 C 260.753906 362.183594 262.835938 362.183594 265.351562 362.183594 C 265.351562 357.285156 265.351562 352.6875 265.351562 348.175781 C 269.207031 348.175781 272.613281 348.175781 276.53125 348.175781 C 276.53125 353.085938 276.53125 357.648438 276.53125 362.222656 C 278.992188 362.222656 280.925781 362.222656 282.980469 362.222656 C 282.980469 350.234375 282.980469 338.515625 282.980469 326.824219 C 280.601562 326.824219 278.550781 326.824219 276.308594 326.824219 C 276.308594 328.742188 276.308594 330.234375 276.308594 332.640625 M 228.1875 332.683594 C 228.183594 338.335938 228.328125 343.992188 228.128906 349.636719 C 227.957031 354.449219 223.066406 357.324219 219.332031 354.527344 C 217.574219 353.210938 216.421875 350.128906 216.292969 347.777344 C 215.902344 340.738281 216.152344 333.667969 216.152344 326.722656 C 213.507812 326.722656 211.59375 326.722656 209.59375 326.722656 C 209.59375 335.171875 209.21875 343.300781 209.707031 351.375 C 210.128906 358.375 215.054688 362.40625 221.949219 362.539062 C 228.832031 362.667969 234.410156 358.753906 234.917969 352.082031 C 235.550781 343.703125 235.070312 335.238281 235.070312 326.820312 C 232.710938 326.820312 230.519531 326.820312 228.1875 326.820312 C 228.1875 328.761719 228.1875 330.25 228.1875 332.683594 M 158.066406 333.628906 C 158.066406 331.347656 158.066406 329.0625 158.066406 326.8125 C 155.484375 326.8125 153.449219 326.8125 151.417969 326.8125 C 151.417969 338.835938 151.417969 350.410156 151.417969 362.171875 C 153.695312 362.171875 155.734375 362.171875 158.503906 362.171875 C 158.503906 358.050781 158.503906 354.269531 158.503906 350.488281 C 161.300781 352.632812 163.34375 354.839844 164.582031 357.425781 C 167.046875 362.566406 170.851562 363.5 176.351562 361.957031 C 172.078125 355.746094 168 349.8125 164.03125 344.046875 C 167.882812 338.105469 171.457031 332.597656 175.089844 326.992188 C 164.492188 323.246094 164.683594 334.46875 158.875 338.179688 C 158.523438 336.617188 158.296875 335.601562 158.066406 333.628906 M 349.226562 351.269531 C 350.164062 350.273438 350.949219 348.703125 352.074219 348.402344 C 353.945312 347.90625 356.042969 348.355469 358.023438 348.171875 C 363.003906 347.710938 366.515625 343.722656 366.816406 338.363281 C 367.15625 332.351562 364.085938 327.28125 358.976562 326.789062 C 353.597656 326.273438 348.128906 326.675781 342.621094 326.675781 C 342.621094 338.757812 342.621094 350.449219 342.621094 362.324219 C 344.886719 362.324219 346.828125 362.324219 349.222656 362.324219 C 349.222656 358.859375 349.222656 355.570312 349.226562 351.269531 M 308.375 333.085938 C 308.796875 331.015625 309.21875 328.945312 309.675781 326.699219 C 303.21875 326.699219 297.671875 326.699219 292.058594 326.699219 C 292.058594 338.734375 292.058594 350.460938 292.058594 362.175781 C 298.199219 362.175781 304.074219 362.175781 309.964844 362.175781 C 309.964844 359.746094 309.964844 357.632812 309.964844 355.074219 C 306.175781 355.074219 302.605469 355.074219 299.164062 355.074219 C 299.164062 352.402344 299.164062 350.191406 299.164062 347.628906 C 302.328125 347.628906 305.082031 347.628906 307.871094 347.628906 C 307.871094 345.199219 307.871094 343.140625 307.871094 340.746094 C 304.789062 340.746094 302.019531 340.746094 299.175781 340.746094 C 299.175781 338.050781 299.175781 335.71875 299.175781 333.140625 C 302.246094 333.140625 304.894531 333.140625 308.375 333.085938 M 121.761719 345.082031 C 119.480469 350.699219 117.203125 356.316406 114.878906 362.046875 C 120.503906 362.695312 119.960938 361.558594 124.09375 359.59375 C 127.507812 357.96875 134.371094 357.765625 136.203125 359.914062 C 139.476562 363.753906 142.042969 361.917969 145.472656 362.074219 C 140.371094 349.550781 135.480469 337.550781 130.144531 324.460938 C 127.097656 331.851562 124.523438 338.09375 121.761719 345.082031 M 389.730469 362.492188 C 390.441406 360.214844 391.152344 357.933594 392.074219 354.980469 C 387.207031 354.980469 383.773438 354.980469 380.433594 354.980469 C 380.433594 352.414062 380.433594 350.21875 380.433594 347.636719 C 383.589844 347.636719 386.347656 347.636719 389.230469 347.636719 C 389.230469 345.195312 389.230469 343.160156 389.230469 340.765625 C 386.074219 340.765625 383.304688 340.765625 380.292969 340.765625 C 380.292969 338.167969 380.292969 335.925781 380.292969 333.230469 C 383.902344 333.230469 387.316406 333.230469 390.769531 333.230469 C 390.769531 330.730469 390.769531 328.6875 390.769531 326.8125 C 384.695312 326.8125 378.992188 326.8125 373.292969 326.8125 C 373.292969 338.824219 373.292969 350.394531 373.292969 362.507812 C 378.644531 362.507812 383.757812 362.507812 389.730469 362.492188 M 187.863281 338.386719 C 187.863281 346.3125 187.863281 354.234375 187.863281 362.15625 C 190.429688 362.15625 192.496094 362.15625 194.984375 362.15625 C 194.984375 352.390625 194.984375 342.996094 194.984375 333.4375 C 198.140625 333.246094 200.878906 333.082031 203.644531 332.917969 C 203.644531 330.636719 203.644531 328.730469 203.644531 326.703125 C 195.316406 326.703125 187.273438 326.703125 179.113281 326.703125 C 179.113281 328.925781 179.113281 330.839844 179.113281 332.726562 C 187.503906 333.777344 187.503906 333.777344 187.863281 338.386719 M 317.273438 338.523438 C 317.273438 346.410156 317.273438 354.300781 317.273438 362.261719 C 323.921875 362.261719 329.828125 362.261719 335.820312 362.261719 C 335.820312 359.882812 335.820312 357.78125 335.820312 355.113281 C 332.074219 355.113281 328.519531 355.113281 324.582031 355.113281 C 324.582031 345.324219 324.582031 336.101562 324.582031 326.742188 C 321.96875 326.742188 319.773438 326.742188 317.273438 326.742188 C 317.273438 330.605469 317.273438 334.070312 317.273438 338.523438 Z M 317.273438 338.523438 "/>
<path style=" stroke:none;fill-rule:nonzero;fill:rgb(1.960784%,23.529412%,49.019608%);fill-opacity:1;" d="M 344.089844 174.066406 C 349.863281 174.386719 355.195312 174.511719 360.449219 175.199219 C 362.117188 175.417969 364.257812 176.765625 365.050781 178.21875 C 377.652344 201.253906 390.070312 224.386719 402.507812 247.511719 C 402.875 248.1875 402.984375 249 403.355469 250.214844 C 355.136719 247.8125 310.191406 255.3125 272.253906 289.832031 C 272.253906 287.3125 272.253906 285.621094 272.253906 283.933594 C 272.253906 256.625 272.378906 229.316406 272.140625 202.011719 C 272.101562 197.398438 273.5 194.90625 277.5625 192.769531 C 298.292969 181.875 320.113281 175.0625 344.089844 174.066406 Z M 344.089844 174.066406 "/>
<path style=" stroke:none;fill-rule:nonzero;fill:rgb(7.843137%,61.176471%,98.039216%);fill-opacity:1;" d="M 166.132812 193.128906 C 168.917969 187.976562 171.339844 183.027344 174.269531 178.402344 C 175.246094 176.863281 177.425781 175.417969 179.226562 175.175781 C 198.171875 172.613281 216.726562 174.957031 234.621094 181.300781 C 244.457031 184.785156 253.875 189.507812 263.3125 194.019531 C 264.984375 194.816406 266.902344 197.316406 266.914062 199.046875 C 267.132812 228.363281 267.070312 257.679688 267.058594 286.996094 C 267.058594 287.59375 266.925781 288.191406 266.753906 289.605469 C 228.980469 255.460938 184.03125 247.617188 135.113281 250.390625 C 145.484375 231.253906 155.722656 212.355469 166.132812 193.128906 Z M 166.132812 193.128906 "/>
<path style=" stroke:none;fill-rule:nonzero;fill:rgb(99.607843%,78.431373%,13.333333%);fill-opacity:1;" d="M 243.253906 91.125 C 211.054688 98.800781 186.285156 116.441406 168.496094 143.746094 C 157.566406 160.515625 151.335938 179.070312 150.054688 199.027344 C 149.648438 205.355469 146.023438 209.796875 143.617188 214.984375 C 142.503906 217.382812 140.980469 219.585938 139.605469 221.941406 C 129.363281 210.421875 143.40625 156.316406 162.945312 129.535156 C 201.667969 76.460938 270.726562 62.441406 325.378906 87.714844 C 383.707031 114.691406 408.152344 176.847656 400.816406 223.949219 C 394.261719 213.316406 389.300781 202.949219 387.824219 190.363281 C 382.242188 142.769531 343.0625 101.09375 296.101562 91.117188 C 278.582031 87.394531 261.152344 87.070312 243.253906 91.125 Z M 243.253906 91.125 "/>
<path style=" stroke:none;fill-rule:nonzero;fill:rgb(98.431373%,65.490196%,5.098039%);fill-opacity:1;" d="M 235.433594 123.21875 C 216.078125 131.136719 201.527344 144.078125 190.96875 161.566406 C 189.535156 163.933594 188.007812 165.109375 185.085938 165.054688 C 181.835938 164.992188 178.570312 165.671875 175.121094 166.050781 C 184.738281 137.847656 219.726562 107.097656 261.714844 104.234375 C 317.175781 100.449219 354.71875 139.019531 364.167969 165.953125 C 359.746094 165.570312 355.527344 165.402344 351.394531 164.710938 C 350.265625 164.523438 349.179688 162.894531 348.449219 161.695312 C 334.136719 138.296875 313.578125 123.5625 286.722656 118.230469 C 269.410156 114.796875 252.304688 116.558594 235.433594 123.21875 Z M 235.433594 123.21875 "/>
<path style=" stroke:none;fill-rule:nonzero;fill:rgb(97.254902%,53.72549%,12.54902%);fill-opacity:1;" d="M 286.386719 147.332031 C 261.734375 141.386719 240.957031 147.515625 223.394531 165.175781 C 222.1875 166.386719 219.890625 166.78125 218.039062 167 C 216.453125 167.183594 214.777344 166.554688 213.136719 166.3125 C 211.523438 166.074219 209.902344 165.871094 208.222656 165.640625 C 216.910156 148.472656 241.667969 132.144531 269.800781 132.472656 C 295.648438 132.773438 316.21875 143.828125 331.488281 164.671875 C 330.761719 165.460938 330.683594 165.628906 330.558594 165.671875 C 322.316406 168.5625 316.246094 166.257812 309.578125 160.214844 C 303.285156 154.515625 294.480469 151.585938 286.386719 147.332031 Z M 286.386719 147.332031 "/>
<path style=" stroke:none;fill-rule:nonzero;fill:rgb(5.490196%,25.882353%,50.980392%);fill-opacity:1;" d="M 325.128906 268.191406 C 351.605469 258.917969 378.089844 257.898438 405.21875 264.097656 C 405.21875 270.085938 405.21875 275.832031 405.21875 282.15625 C 361.089844 268.773438 318.859375 273.507812 278.347656 295.296875 C 292.109375 282.960938 307.734375 274.410156 325.128906 268.191406 Z M 325.128906 268.191406 "/>
<path style=" stroke:none;fill-rule:nonzero;fill:rgb(10.196078%,62.352941%,98.039216%);fill-opacity:1;" d="M 183.96875 274.722656 C 166.902344 274.660156 150.707031 277.285156 133.945312 282.113281 C 133.945312 276.425781 133.683594 271.183594 134.152344 266.007812 C 134.25 264.898438 136.878906 263.449219 138.527344 263.144531 C 152.460938 260.570312 166.4375 259.375 180.675781 260.804688 C 205.734375 263.324219 228.410156 272.023438 249.269531 285.832031 C 251.742188 287.46875 253.890625 289.605469 255.746094 292.382812 C 233.0625 281.503906 209.457031 275.273438 183.96875 274.722656 Z M 183.96875 274.722656 "/>
<path style=" stroke:none;fill-rule:nonzero;fill:rgb(5.882353%,5.882353%,5.882353%);fill-opacity:1;" d="M 417.132812 347.339844 C 419.277344 352.3125 421.660156 357 424.199219 361.988281 C 419.675781 363.140625 416.121094 363.03125 414.316406 357.824219 C 413.453125 355.339844 412.03125 353 410.554688 350.804688 C 409.835938 349.734375 408.40625 349.144531 407.296875 348.339844 C 406.742188 349.535156 405.792969 350.703125 405.710938 351.933594 C 405.484375 355.21875 405.632812 358.527344 405.632812 362.164062 C 403.234375 362.164062 401.179688 362.164062 398.882812 362.164062 C 398.882812 350.414062 398.882812 338.828125 398.882812 326.898438 C 404.800781 326.898438 410.867188 326.070312 416.503906 327.261719 C 419.140625 327.820312 421.957031 331.96875 422.910156 335.039062 C 424.46875 340.066406 422.390625 344.503906 417.132812 347.339844 M 409.285156 333.085938 C 401.910156 333.5 407.113281 338.578125 405.273438 341.859375 C 409.804688 341.320312 414.609375 343.875 415.804688 338.003906 C 416.632812 333.925781 413.441406 333.144531 409.285156 333.085938 Z M 409.285156 333.085938 "/>
<path style=" stroke:none;fill-rule:nonzero;fill:rgb(4.705882%,4.705882%,4.705882%);fill-opacity:1;" d="M 276.308594 332.183594 C 276.308594 330.234375 276.308594 328.742188 276.308594 326.824219 C 278.550781 326.824219 280.601562 326.824219 282.980469 326.824219 C 282.980469 338.515625 282.980469 350.234375 282.980469 362.222656 C 280.925781 362.222656 278.992188 362.222656 276.53125 362.222656 C 276.53125 357.648438 276.53125 353.085938 276.53125 348.175781 C 272.613281 348.175781 269.207031 348.175781 265.351562 348.175781 C 265.351562 352.6875 265.351562 357.285156 265.351562 362.183594 C 262.835938 362.183594 260.753906 362.183594 258.320312 362.183594 C 258.320312 350.484375 258.320312 338.761719 258.320312 326.714844 C 260.316406 326.714844 262.390625 326.714844 265.011719 326.714844 C 265.011719 331.226562 265.011719 335.789062 265.011719 340.617188 C 268.933594 340.617188 272.328125 340.617188 276.308594 340.617188 C 276.308594 337.855469 276.308594 335.25 276.308594 332.183594 Z M 276.308594 332.183594 "/>
<path style=" stroke:none;fill-rule:nonzero;fill:rgb(6.666667%,6.666667%,6.666667%);fill-opacity:1;" d="M 228.1875 332.214844 C 228.1875 330.25 228.1875 328.761719 228.1875 326.820312 C 230.519531 326.820312 232.710938 326.820312 235.070312 326.820312 C 235.070312 335.238281 235.550781 343.703125 234.917969 352.082031 C 234.410156 358.753906 228.832031 362.667969 221.949219 362.539062 C 215.054688 362.40625 210.128906 358.375 209.707031 351.375 C 209.21875 343.300781 209.59375 335.171875 209.59375 326.722656 C 211.59375 326.722656 213.507812 326.722656 216.152344 326.722656 C 216.152344 333.667969 215.902344 340.738281 216.292969 347.777344 C 216.421875 350.128906 217.574219 353.210938 219.332031 354.527344 C 223.066406 357.324219 227.957031 354.449219 228.128906 349.636719 C 228.328125 343.992188 228.183594 338.335938 228.1875 332.214844 Z M 228.1875 332.214844 "/>
<path style=" stroke:none;fill-rule:nonzero;fill:rgb(7.058824%,7.058824%,7.058824%);fill-opacity:1;" d="M 158.066406 334.105469 C 158.296875 335.601562 158.523438 336.617188 158.875 338.179688 C 164.683594 334.46875 164.492188 323.246094 175.089844 326.992188 C 171.457031 332.597656 167.882812 338.105469 164.03125 344.046875 C 168 349.8125 172.078125 355.746094 176.351562 361.957031 C 170.851562 363.5 167.046875 362.566406 164.582031 357.425781 C 163.34375 354.839844 161.300781 352.632812 158.503906 350.488281 C 158.503906 354.269531 158.503906 358.050781 158.503906 362.171875 C 155.734375 362.171875 153.695312 362.171875 151.417969 362.171875 C 151.417969 350.410156 151.417969 338.835938 151.417969 326.8125 C 153.449219 326.8125 155.484375 326.8125 158.066406 326.8125 C 158.066406 329.0625 158.066406 331.347656 158.066406 334.105469 Z M 158.066406 334.105469 "/>
<path style=" stroke:none;fill-rule:nonzero;fill:rgb(6.666667%,6.666667%,6.666667%);fill-opacity:1;" d="M 349.222656 351.777344 C 349.222656 355.570312 349.222656 358.859375 349.222656 362.324219 C 346.828125 362.324219 344.886719 362.324219 342.621094 362.324219 C 342.621094 350.449219 342.621094 338.757812 342.621094 326.675781 C 348.128906 326.675781 353.597656 326.273438 358.976562 326.789062 C 364.085938 327.28125 367.15625 332.351562 366.816406 338.363281 C 366.515625 343.722656 363.003906 347.710938 358.023438 348.171875 C 356.042969 348.355469 353.945312 347.90625 352.074219 348.402344 C 350.949219 348.703125 350.164062 350.273438 349.222656 351.777344 M 359.503906 337.484375 C 358.085938 332.902344 355.800781 332.085938 349.539062 333.894531 C 349.539062 336.460938 349.539062 339.003906 349.539062 342.175781 C 353.257812 341.007812 357.769531 343.9375 359.503906 337.484375 Z M 359.503906 337.484375 "/>
<path style=" stroke:none;fill-rule:nonzero;fill:rgb(4.705882%,4.705882%,4.705882%);fill-opacity:1;" d="M 307.960938 333.113281 C 304.894531 333.140625 302.246094 333.140625 299.175781 333.140625 C 299.175781 335.71875 299.175781 338.050781 299.175781 340.746094 C 302.019531 340.746094 304.789062 340.746094 307.871094 340.746094 C 307.871094 343.140625 307.871094 345.199219 307.871094 347.628906 C 305.082031 347.628906 302.328125 347.628906 299.164062 347.628906 C 299.164062 350.191406 299.164062 352.402344 299.164062 355.074219 C 302.605469 355.074219 306.175781 355.074219 309.964844 355.074219 C 309.964844 357.632812 309.964844 359.746094 309.964844 362.175781 C 304.074219 362.175781 298.199219 362.175781 292.058594 362.175781 C 292.058594 350.460938 292.058594 338.734375 292.058594 326.699219 C 297.671875 326.699219 303.21875 326.699219 309.675781 326.699219 C 309.21875 328.945312 308.796875 331.015625 307.960938 333.113281 Z M 307.960938 333.113281 "/>
<path style=" stroke:none;fill-rule:nonzero;fill:rgb(3.137255%,3.137255%,3.137255%);fill-opacity:1;" d="M 121.855469 344.707031 C 124.523438 338.09375 127.097656 331.851562 130.144531 324.460938 C 135.480469 337.550781 140.371094 349.550781 145.472656 362.074219 C 142.042969 361.917969 139.476562 363.753906 136.203125 359.914062 C 134.371094 357.765625 127.507812 357.96875 124.09375 359.59375 C 119.960938 361.558594 120.503906 362.695312 114.878906 362.046875 C 117.203125 356.316406 119.480469 350.699219 121.855469 344.707031 M 131.105469 344.515625 C 130.460938 344.40625 129.296875 344.105469 129.253906 344.222656 C 128.351562 346.617188 127.578125 349.0625 126.714844 351.691406 C 129.152344 351.691406 131.113281 351.691406 133.550781 351.691406 C 132.71875 349.210938 132.058594 347.230469 131.105469 344.515625 Z M 131.105469 344.515625 "/>
<path style=" stroke:none;fill-rule:nonzero;fill:rgb(6.27451%,6.27451%,6.27451%);fill-opacity:1;" d="M 389.300781 362.5 C 383.757812 362.507812 378.644531 362.507812 373.292969 362.507812 C 373.292969 350.394531 373.292969 338.824219 373.292969 326.8125 C 378.992188 326.8125 384.695312 326.8125 390.769531 326.8125 C 390.769531 328.6875 390.769531 330.730469 390.769531 333.230469 C 387.316406 333.230469 383.902344 333.230469 380.292969 333.230469 C 380.292969 335.925781 380.292969 338.167969 380.292969 340.765625 C 383.304688 340.765625 386.074219 340.765625 389.230469 340.765625 C 389.230469 343.160156 389.230469 345.195312 389.230469 347.636719 C 386.347656 347.636719 383.589844 347.636719 380.433594 347.636719 C 380.433594 350.21875 380.433594 352.414062 380.433594 354.980469 C 383.773438 354.980469 387.207031 354.980469 392.074219 354.980469 C 391.152344 357.933594 390.441406 360.214844 389.300781 362.5 Z M 389.300781 362.5 "/>
<path style=" stroke:none;fill-rule:nonzero;fill:rgb(8.627451%,8.627451%,8.627451%);fill-opacity:1;" d="M 187.863281 337.871094 C 187.503906 333.777344 187.503906 333.777344 179.113281 332.726562 C 179.113281 330.839844 179.113281 328.925781 179.113281 326.703125 C 187.273438 326.703125 195.316406 326.703125 203.644531 326.703125 C 203.644531 328.730469 203.644531 330.636719 203.644531 332.917969 C 200.878906 333.082031 198.140625 333.246094 194.984375 333.4375 C 194.984375 342.996094 194.984375 352.390625 194.984375 362.15625 C 192.496094 362.15625 190.429688 362.15625 187.863281 362.15625 C 187.863281 354.234375 187.863281 346.3125 187.863281 337.871094 Z M 187.863281 337.871094 "/>
<path style=" stroke:none;fill-rule:nonzero;fill:rgb(9.019608%,9.019608%,9.019608%);fill-opacity:1;" d="M 317.273438 338.03125 C 317.273438 334.070312 317.273438 330.605469 317.273438 326.742188 C 319.773438 326.742188 321.96875 326.742188 324.582031 326.742188 C 324.582031 336.101562 324.582031 345.324219 324.582031 355.113281 C 328.519531 355.113281 332.074219 355.113281 335.820312 355.113281 C 335.820312 357.78125 335.820312 359.882812 335.820312 362.261719 C 329.828125 362.261719 323.921875 362.261719 317.273438 362.261719 C 317.273438 354.300781 317.273438 346.410156 317.273438 338.03125 Z M 317.273438 338.03125 "/>
<path style=" stroke:none;fill-rule:nonzero;fill:rgb(92.54902%,92.941176%,92.941176%);fill-opacity:1;" d="M 409.722656 333.089844 C 413.441406 333.144531 416.632812 333.925781 415.804688 338.003906 C 414.609375 343.875 409.804688 341.320312 405.273438 341.859375 C 407.113281 338.578125 401.910156 333.5 409.722656 333.089844 Z M 409.722656 333.089844 "/>
<path style=" stroke:none;fill-rule:nonzero;fill:rgb(91.372549%,91.372549%,91.372549%);fill-opacity:1;" d="M 359.460938 337.914062 C 357.769531 343.9375 353.257812 341.007812 349.539062 342.175781 C 349.539062 339.003906 349.539062 336.460938 349.539062 333.894531 C 355.800781 332.085938 358.085938 332.902344 359.460938 337.914062 Z M 359.460938 337.914062 "/>
<path style=" stroke:none;fill-rule:nonzero;fill:rgb(87.45098%,87.45098%,87.45098%);fill-opacity:1;" d="M 131.25 344.886719 C 132.058594 347.230469 132.71875 349.210938 133.550781 351.691406 C 131.113281 351.691406 129.152344 351.691406 126.714844 351.691406 C 127.578125 349.0625 128.351562 346.617188 129.253906 344.222656 C 129.296875 344.105469 130.460938 344.40625 131.25 344.886719 Z M 131.25 344.886719 "/>
</g>
</svg>
