<svg version="1.1" id="Layer_1" xmlns="http://www.w3.org/2000/svg" xmlns:xlink="http://www.w3.org/1999/xlink" x="0px" y="0px"
	 width="100%" viewBox="0 0 512 512" enable-background="new 0 0 512 512" xml:space="preserve">
<path fill="#FEFEFE" opacity="1.000000" stroke="none" 
	d="
M273.000000,513.000000 
	C182.022079,513.000000 91.544159,513.000000 1.033118,513.000000 
	C1.033118,342.397064 1.033118,171.794098 1.033118,1.095572 
	C171.561279,1.095572 342.122620,1.095572 512.841980,1.095572 
	C512.841980,171.666550 512.841980,342.333252 512.841980,513.000000 
	C433.127411,513.000000 353.313690,513.000000 273.000000,513.000000 
M343.618988,174.086624 
	C320.113159,175.060898 298.292175,181.875473 277.561859,192.769714 
	C273.499573,194.904541 272.101471,197.399216 272.141479,202.010818 
	C272.378418,229.317291 272.254913,256.626892 272.252625,283.935425 
	C272.252502,285.623016 272.252594,287.310608 272.252594,289.833557 
	C310.193329,255.311890 355.137756,247.813278 403.356873,250.214523 
	C402.985291,249.001770 402.873260,248.189423 402.509216,247.512619 
	C390.071350,224.387985 377.651642,201.253204 365.051361,178.217209 
	C364.258148,176.767014 362.118469,175.417007 360.451141,175.199081 
	C355.194397,174.512039 349.864258,174.386673 343.618988,174.086624 
M165.963852,193.455566 
	C155.723709,212.354156 145.483566,231.252731 135.113098,250.391846 
	C184.032654,247.616577 228.979370,255.461655 266.753265,289.604462 
	C266.923889,288.191772 267.058960,287.594116 267.059204,286.996368 
	C267.070801,257.679260 267.133362,228.361694 266.914062,199.046234 
	C266.901123,197.318069 264.984619,194.817780 263.312561,194.018524 
	C253.873581,189.506805 244.458405,184.784897 234.622406,181.299210 
	C216.725952,174.957108 198.172684,172.614990 179.225204,175.175079 
	C177.427292,175.417999 175.246048,176.863525 174.271317,178.402283 
	C171.340866,183.028473 168.919388,187.977066 165.963852,193.455566 
M243.669342,91.071220 
	C261.150421,87.071121 278.581024,87.394745 296.101288,91.116936 
	C343.061310,101.093636 382.243073,142.768997 387.825989,190.362869 
	C389.302399,202.949112 394.261871,213.317230 400.814606,223.949265 
	C408.150696,176.847763 383.708862,114.691910 325.378296,87.715004 
	C270.726990,62.439671 201.667740,76.459549 162.945908,129.534485 
	C143.405991,156.317307 129.364365,210.422302 139.605423,221.940170 
	C140.979126,219.586411 142.503235,217.381485 143.615616,214.985397 
	C146.025040,209.795456 149.647766,205.355103 150.054214,199.028595 
	C151.336349,179.070892 157.568298,160.514923 168.494583,143.746506 
	C186.286499,116.441528 211.054886,98.801651 243.669342,91.071220 
M235.790253,123.071129 
	C252.302856,116.558289 269.411530,114.795647 286.723328,118.232025 
	C313.579437,123.562927 334.135651,138.297668 348.449188,161.697052 
	C349.181061,162.893509 350.266083,164.523392 351.393921,164.711960 
	C355.526733,165.402924 359.747253,165.569534 364.167572,165.953827 
	C354.718292,139.017899 317.175049,100.449455 261.714294,104.232628 
	C219.728348,107.096642 184.737671,137.845886 175.120529,166.049652 
	C178.571701,165.671951 181.835678,164.993134 185.085663,165.054581 
	C188.006699,165.109787 189.536804,163.934280 190.967804,161.564499 
	C201.528046,144.076752 216.077377,131.137665 235.790253,123.071129 
M286.782928,147.439423 
	C294.481445,151.586975 303.283905,154.515640 309.576752,160.215195 
	C316.246826,166.256363 322.317932,168.561554 330.558228,165.671249 
	C330.682770,165.627563 330.763489,165.459045 331.487274,164.670441 
	C316.216919,143.826538 295.646759,132.774933 269.800262,132.472290 
	C241.667923,132.142868 216.911880,148.471863 208.224609,165.641815 
	C209.903732,165.869568 211.522751,166.073837 213.136734,166.312347 
	C214.777008,166.554749 216.453781,167.185287 218.038925,166.999710 
	C219.892517,166.782700 222.188019,166.387787 223.392929,165.176178 
	C240.955231,147.515854 261.735626,141.387085 286.782928,147.439423 
M324.746582,268.295288 
	C307.735718,274.412048 292.110870,282.959198 278.348877,295.295837 
	C318.858459,273.508942 361.091339,268.771606 405.218536,282.157562 
	C405.218536,275.832367 405.218536,270.084869 405.218536,264.096191 
	C378.088562,257.897827 351.605743,258.916840 324.746582,268.295288 
M184.459915,274.723602 
	C209.457962,275.274658 233.060959,281.505005 255.744812,292.383789 
	C253.889069,289.605499 251.743179,287.469727 249.268158,285.831055 
	C228.410934,272.022003 205.735031,263.323090 180.675766,260.804352 
	C166.435623,259.373108 152.462082,260.570374 138.526062,263.145752 
	C136.879990,263.449951 134.251343,264.900146 134.151627,266.006073 
	C133.684860,271.182922 133.944336,276.425293 133.944336,282.111511 
	C150.708145,277.285461 166.902512,274.660095 184.459915,274.723602 
M417.371674,347.054749 
	C422.392395,344.504822 424.469971,340.066650 422.911346,335.039917 
	C421.958618,331.967102 419.141785,327.819519 416.505493,327.262451 
	C410.865662,326.070740 404.799377,326.897491 398.882690,326.897491 
	C398.882690,338.827850 398.882690,350.413300 398.882690,362.162659 
	C401.178864,362.162659 403.232574,362.162659 405.632904,362.162659 
	C405.632904,358.528046 405.485321,355.217529 405.709167,351.932281 
	C405.792847,350.703888 406.742188,349.534454 407.296814,348.338135 
	C408.404785,349.144867 409.834778,349.735016 410.553497,350.803589 
	C412.031342,353.000732 413.453674,355.341156 414.315155,357.825043 
	C416.120300,363.029938 419.675568,363.138824 424.198914,361.988861 
	C421.660614,356.998535 419.276947,352.312256 417.371674,347.054749 
M276.306671,332.641235 
	C276.306671,335.248444 276.306671,337.855621 276.306671,340.618134 
	C272.326569,340.618134 268.934631,340.618134 265.010559,340.618134 
	C265.010559,335.790955 265.010559,331.226135 265.010559,326.714294 
	C262.391724,326.714294 260.315643,326.714294 258.321503,326.714294 
	C258.321503,338.762787 258.321503,350.484772 258.321503,362.185303 
	C260.753601,362.185303 262.834473,362.185303 265.350769,362.185303 
	C265.350769,357.285431 265.350769,352.688477 265.350769,348.177246 
	C269.208984,348.177246 272.612305,348.177246 276.529572,348.177246 
	C276.529572,353.086792 276.529572,357.649506 276.529572,362.221802 
	C278.992279,362.221802 280.927338,362.221802 282.978577,362.221802 
	C282.978577,350.232849 282.978577,338.515961 282.978577,326.822571 
	C280.600006,326.822571 278.549530,326.822571 276.306702,326.822571 
	C276.306702,328.743744 276.306702,330.233917 276.306671,332.641235 
M228.185974,332.682861 
	C228.182388,338.334991 228.329941,343.992462 228.129013,349.637573 
	C227.957718,354.449860 223.067612,357.322937 219.330353,354.526825 
	C217.572769,353.211853 216.421478,350.129547 216.291061,347.776276 
	C215.901062,340.739929 216.150864,333.668060 216.150864,326.722290 
	C213.507080,326.722290 211.595535,326.722290 209.591919,326.722290 
	C209.591919,335.173767 209.217514,343.300171 209.705276,351.374542 
	C210.128189,358.375763 215.054276,362.407684 221.948013,362.537933 
	C228.831650,362.667999 234.411880,358.753235 234.917297,352.080597 
	C235.551880,343.702576 235.070084,335.239990 235.070084,326.820435 
	C232.710236,326.820435 230.519943,326.820435 228.185974,326.820435 
	C228.185974,328.759918 228.185974,330.251862 228.185974,332.682861 
M158.066452,333.630005 
	C158.066452,331.346771 158.066452,329.063538 158.066452,326.812103 
	C155.486099,326.812103 153.450195,326.812103 151.416718,326.812103 
	C151.416718,338.834229 151.416718,350.408569 151.416718,362.172638 
	C153.695328,362.172638 155.733170,362.172638 158.503326,362.172638 
	C158.503326,358.050964 158.503326,354.269379 158.503326,350.487823 
	C161.300797,352.632599 163.342285,354.837921 164.583984,357.426849 
	C167.048141,362.564728 170.852005,363.500854 176.349976,361.955414 
	C172.079361,355.747131 167.998184,349.814240 164.030457,344.046295 
	C167.881653,338.107361 171.455307,332.596405 175.089859,326.991516 
	C164.493835,323.244476 164.682785,334.467224 158.873856,338.179199 
	C158.524704,336.618896 158.296722,335.600067 158.066452,333.630005 
M349.225006,351.270599 
	C350.163757,350.271942 350.950653,348.702362 352.075409,348.403229 
	C353.945038,347.905975 356.043945,348.357361 358.024292,348.172974 
	C363.004486,347.709229 366.515991,343.722534 366.818085,338.364349 
	C367.157196,332.350189 364.084686,327.280273 358.977539,326.790131 
	C353.598114,326.273834 348.130646,326.674469 342.619781,326.674469 
	C342.619781,338.757050 342.619781,350.448456 342.619781,362.323608 
	C344.885468,362.323608 346.829163,362.323608 349.221924,362.323608 
	C349.221924,358.860992 349.221924,355.570984 349.225006,351.270599 
M308.374695,333.086884 
	C308.796661,331.015137 309.218597,328.943390 309.675934,326.697784 
	C303.218628,326.697784 297.673553,326.697784 292.057281,326.697784 
	C292.057281,338.733215 292.057281,350.460449 292.057281,362.174927 
	C298.199432,362.174927 304.075714,362.174927 309.963715,362.174927 
	C309.963715,359.744995 309.963715,357.633423 309.963715,355.074646 
	C306.174042,355.074646 302.606262,355.074646 299.163574,355.074646 
	C299.163574,352.404022 299.163574,350.193329 299.163574,347.630188 
	C302.328369,347.630188 305.083160,347.630188 307.872192,347.630188 
	C307.872192,345.197449 307.872192,343.139648 307.872192,340.745605 
	C304.787598,340.745605 302.017700,340.745605 299.176331,340.745605 
	C299.176331,338.049377 299.176331,335.717499 299.176331,333.139679 
	C302.245026,333.139679 304.895660,333.139679 308.374695,333.086884 
M121.759834,345.080505 
	C119.481621,350.697906 117.203407,356.315277 114.878906,362.046814 
	C120.503357,362.695557 119.962807,361.559052 124.092117,359.595032 
	C127.508728,357.970062 134.371841,357.764587 136.204956,359.915527 
	C139.477524,363.755432 142.044571,361.916962 145.473251,362.074188 
	C140.370316,349.551544 135.479843,337.550262 130.146194,324.461426 
	C127.098190,331.853088 124.524666,338.094086 121.759834,345.080505 
M389.731201,362.493805 
	C390.441559,360.213837 391.151947,357.933838 392.072296,354.980042 
	C387.207336,354.980042 383.774963,354.980042 380.432831,354.980042 
	C380.432831,352.413086 380.432831,350.218811 380.432831,347.636902 
	C383.589905,347.636902 386.346619,347.636902 389.231201,347.636902 
	C389.231201,345.196655 389.231201,343.159760 389.231201,340.767395 
	C386.073944,340.767395 383.304535,340.767395 380.291077,340.767395 
	C380.291077,338.168121 380.291077,335.926849 380.291077,333.231750 
	C383.901947,333.231750 387.314789,333.231750 390.768494,333.231750 
	C390.768494,330.729828 390.768494,328.687531 390.768494,326.811157 
	C384.695740,326.811157 378.990601,326.811157 373.293610,326.811157 
	C373.293610,338.822876 373.293610,350.395508 373.293610,362.506226 
	C378.643402,362.506226 383.757202,362.506226 389.731201,362.493805 
M187.862961,338.387939 
	C187.862961,346.311401 187.862961,354.234863 187.862961,362.156097 
	C190.430588,362.156097 192.495468,362.156097 194.984360,362.156097 
	C194.984360,352.390808 194.984360,342.994598 194.984360,333.436432 
	C198.140411,333.247772 200.880554,333.083984 203.643768,332.918823 
	C203.643768,330.636597 203.643768,328.729095 203.643768,326.703064 
	C195.316620,326.703064 187.273941,326.703064 179.111359,326.703064 
	C179.111359,328.924133 179.111359,330.840607 179.111359,332.726379 
	C187.503571,333.776459 187.503571,333.776459 187.862961,338.387939 
M317.273590,338.522949 
	C317.273590,346.412079 317.273590,354.301208 317.273590,362.262970 
	C323.921906,362.262970 329.828613,362.262970 335.821594,362.262970 
	C335.821594,359.884644 335.821594,357.781830 335.821594,355.111877 
	C332.075531,355.111877 328.520813,355.111877 324.581360,355.111877 
	C324.581360,345.325439 324.581360,336.101074 324.581360,326.742554 
	C321.968353,326.742554 319.772491,326.742554 317.273621,326.742554 
	C317.273621,330.603882 317.273621,334.069824 317.273590,338.522949 
z"/>
<path fill="#053C7D" opacity="1.000000" stroke="none" 
	d="
M344.090759,174.065277 
	C349.864258,174.386673 355.194397,174.512039 360.451141,175.199081 
	C362.118469,175.417007 364.258148,176.767014 365.051361,178.217209 
	C377.651642,201.253204 390.071350,224.387985 402.509216,247.512619 
	C402.873260,248.189423 402.985291,249.001770 403.356873,250.214523 
	C355.137756,247.813278 310.193329,255.311890 272.252594,289.833557 
	C272.252594,287.310608 272.252502,285.623016 272.252625,283.935425 
	C272.254913,256.626892 272.378418,229.317291 272.141479,202.010818 
	C272.101471,197.399216 273.499573,194.904541 277.561859,192.769714 
	C298.292175,181.875473 320.113159,175.060898 344.090759,174.065277 
z"/>
<path fill="#149CFA" opacity="1.000000" stroke="none" 
	d="
M166.131592,193.127716 
	C168.919388,187.977066 171.340866,183.028473 174.271317,178.402283 
	C175.246048,176.863525 177.427292,175.417999 179.225204,175.175079 
	C198.172684,172.614990 216.725952,174.957108 234.622406,181.299210 
	C244.458405,184.784897 253.873581,189.506805 263.312561,194.018524 
	C264.984619,194.817780 266.901123,197.318069 266.914062,199.046234 
	C267.133362,228.361694 267.070801,257.679260 267.059204,286.996368 
	C267.058960,287.594116 266.923889,288.191772 266.753265,289.604462 
	C228.979370,255.461655 184.032654,247.616577 135.113098,250.391846 
	C145.483566,231.252731 155.723709,212.354156 166.131592,193.127716 
z"/>
<path fill="#FEC822" opacity="1.000000" stroke="none" 
	d="
M243.253006,91.126457 
	C211.054886,98.801651 186.286499,116.441528 168.494583,143.746506 
	C157.568298,160.514923 151.336349,179.070892 150.054214,199.028595 
	C149.647766,205.355103 146.025040,209.795456 143.615616,214.985397 
	C142.503235,217.381485 140.979126,219.586411 139.605423,221.940170 
	C129.364365,210.422302 143.405991,156.317307 162.945908,129.534485 
	C201.667740,76.459549 270.726990,62.439671 325.378296,87.715004 
	C383.708862,114.691910 408.150696,176.847763 400.814606,223.949265 
	C394.261871,213.317230 389.302399,202.949112 387.825989,190.362869 
	C382.243073,142.768997 343.061310,101.093636 296.101288,91.116936 
	C278.581024,87.394745 261.150421,87.071121 243.253006,91.126457 
z"/>
<path fill="#FBA70D" opacity="1.000000" stroke="none" 
	d="
M235.433533,123.218903 
	C216.077377,131.137665 201.528046,144.076752 190.967804,161.564499 
	C189.536804,163.934280 188.006699,165.109787 185.085663,165.054581 
	C181.835678,164.993134 178.571701,165.671951 175.120529,166.049652 
	C184.737671,137.845886 219.728348,107.096642 261.714294,104.232628 
	C317.175049,100.449455 354.718292,139.017899 364.167572,165.953827 
	C359.747253,165.569534 355.526733,165.402924 351.393921,164.711960 
	C350.266083,164.523392 349.181061,162.893509 348.449188,161.697052 
	C334.135651,138.297668 313.579437,123.562927 286.723328,118.232025 
	C269.411530,114.795647 252.302856,116.558289 235.433533,123.218903 
z"/>
<path fill="#F88920" opacity="1.000000" stroke="none" 
	d="
M286.387695,147.331970 
	C261.735626,141.387085 240.955231,147.515854 223.392929,165.176178 
	C222.188019,166.387787 219.892517,166.782700 218.038925,166.999710 
	C216.453781,167.185287 214.777008,166.554749 213.136734,166.312347 
	C211.522751,166.073837 209.903732,165.869568 208.224609,165.641815 
	C216.911880,148.471863 241.667923,132.142868 269.800262,132.472290 
	C295.646759,132.774933 316.216919,143.826538 331.487274,164.670441 
	C330.763489,165.459045 330.682770,165.627563 330.558228,165.671249 
	C322.317932,168.561554 316.246826,166.256363 309.576752,160.215195 
	C303.283905,154.515640 294.481445,151.586975 286.387695,147.331970 
z"/>
<path fill="#0E4282" opacity="1.000000" stroke="none" 
	d="
M325.127258,268.193359 
	C351.605743,258.916840 378.088562,257.897827 405.218536,264.096191 
	C405.218536,270.084869 405.218536,275.832367 405.218536,282.157562 
	C361.091339,268.771606 318.858459,273.508942 278.348877,295.295837 
	C292.110870,282.959198 307.735718,274.412048 325.127258,268.193359 
z"/>
<path fill="#1A9FFA" opacity="1.000000" stroke="none" 
	d="
M183.968445,274.723114 
	C166.902512,274.660095 150.708145,277.285461 133.944336,282.111511 
	C133.944336,276.425293 133.684860,271.182922 134.151627,266.006073 
	C134.251343,264.900146 136.879990,263.449951 138.526062,263.145752 
	C152.462082,260.570374 166.435623,259.373108 180.675766,260.804352 
	C205.735031,263.323090 228.410934,272.022003 249.268158,285.831055 
	C251.743179,287.469727 253.889069,289.605499 255.744812,292.383789 
	C233.060959,281.505005 209.457962,275.274658 183.968445,274.723114 
z"/>
<path fill="#0F0F0F" opacity="1.000000" stroke="none" 
	d="
M417.132507,347.340363 
	C419.276947,352.312256 421.660614,356.998535 424.198914,361.988861 
	C419.675568,363.138824 416.120300,363.029938 414.315155,357.825043 
	C413.453674,355.341156 412.031342,353.000732 410.553497,350.803589 
	C409.834778,349.735016 408.404785,349.144867 407.296814,348.338135 
	C406.742188,349.534454 405.792847,350.703888 405.709167,351.932281 
	C405.485321,355.217529 405.632904,358.528046 405.632904,362.162659 
	C403.232574,362.162659 401.178864,362.162659 398.882690,362.162659 
	C398.882690,350.413300 398.882690,338.827850 398.882690,326.897491 
	C404.799377,326.897491 410.865662,326.070740 416.505493,327.262451 
	C419.141785,327.819519 421.958618,331.967102 422.911346,335.039917 
	C424.469971,340.066650 422.392395,344.504822 417.132507,347.340363 
M409.283508,333.087799 
	C401.912079,333.501862 407.114838,338.579956 405.274872,341.861023 
	C409.804077,341.319244 414.608124,343.874847 415.803833,338.003632 
	C416.634277,333.926239 413.440704,333.144257 409.283508,333.087799 
z"/>
<path fill="#0C0C0C" opacity="1.000000" stroke="none" 
	d="
M276.306702,332.182678 
	C276.306702,330.233917 276.306702,328.743744 276.306702,326.822571 
	C278.549530,326.822571 280.600006,326.822571 282.978577,326.822571 
	C282.978577,338.515961 282.978577,350.232849 282.978577,362.221802 
	C280.927338,362.221802 278.992279,362.221802 276.529572,362.221802 
	C276.529572,357.649506 276.529572,353.086792 276.529572,348.177246 
	C272.612305,348.177246 269.208984,348.177246 265.350769,348.177246 
	C265.350769,352.688477 265.350769,357.285431 265.350769,362.185303 
	C262.834473,362.185303 260.753601,362.185303 258.321503,362.185303 
	C258.321503,350.484772 258.321503,338.762787 258.321503,326.714294 
	C260.315643,326.714294 262.391724,326.714294 265.010559,326.714294 
	C265.010559,331.226135 265.010559,335.790955 265.010559,340.618134 
	C268.934631,340.618134 272.326569,340.618134 276.306671,340.618134 
	C276.306671,337.855621 276.306671,335.248444 276.306702,332.182678 
z"/>
<path fill="#111111" opacity="1.000000" stroke="none" 
	d="
M228.185974,332.213318 
	C228.185974,330.251862 228.185974,328.759918 228.185974,326.820435 
	C230.519943,326.820435 232.710236,326.820435 235.070084,326.820435 
	C235.070084,335.239990 235.551880,343.702576 234.917297,352.080597 
	C234.411880,358.753235 228.831650,362.667999 221.948013,362.537933 
	C215.054276,362.407684 210.128189,358.375763 209.705276,351.374542 
	C209.217514,343.300171 209.591919,335.173767 209.591919,326.722290 
	C211.595535,326.722290 213.507080,326.722290 216.150864,326.722290 
	C216.150864,333.668060 215.901062,340.739929 216.291061,347.776276 
	C216.421478,350.129547 217.572769,353.211853 219.330353,354.526825 
	C223.067612,357.322937 227.957718,354.449860 228.129013,349.637573 
	C228.329941,343.992462 228.182388,338.334991 228.185974,332.213318 
z"/>
<path fill="#121212" opacity="1.000000" stroke="none" 
	d="
M158.067596,334.105621 
	C158.296722,335.600067 158.524704,336.618896 158.873856,338.179199 
	C164.682785,334.467224 164.493835,323.244476 175.089859,326.991516 
	C171.455307,332.596405 167.881653,338.107361 164.030457,344.046295 
	C167.998184,349.814240 172.079361,355.747131 176.349976,361.955414 
	C170.852005,363.500854 167.048141,362.564728 164.583984,357.426849 
	C163.342285,354.837921 161.300797,352.632599 158.503326,350.487823 
	C158.503326,354.269379 158.503326,358.050964 158.503326,362.172638 
	C155.733170,362.172638 153.695328,362.172638 151.416718,362.172638 
	C151.416718,350.408569 151.416718,338.834229 151.416718,326.812103 
	C153.450195,326.812103 155.486099,326.812103 158.066452,326.812103 
	C158.066452,329.063538 158.066452,331.346771 158.067596,334.105621 
z"/>
<path fill="#111111" opacity="1.000000" stroke="none" 
	d="
M349.223450,351.775818 
	C349.221924,355.570984 349.221924,358.860992 349.221924,362.323608 
	C346.829163,362.323608 344.885468,362.323608 342.619781,362.323608 
	C342.619781,350.448456 342.619781,338.757050 342.619781,326.674469 
	C348.130646,326.674469 353.598114,326.273834 358.977539,326.790131 
	C364.084686,327.280273 367.157196,332.350189 366.818085,338.364349 
	C366.515991,343.722534 363.004486,347.709229 358.024292,348.172974 
	C356.043945,348.357361 353.945038,347.905975 352.075409,348.403229 
	C350.950653,348.702362 350.163757,350.271942 349.223450,351.775818 
M359.504852,337.485870 
	C358.086243,332.901031 355.800140,332.085510 349.537720,333.896454 
	C349.537720,336.462463 349.537720,339.004181 349.537720,342.175201 
	C353.259064,341.006134 357.768463,343.938446 359.504852,337.485870 
z"/>
<path fill="#0C0C0C" opacity="1.000000" stroke="none" 
	d="
M307.960510,333.113281 
	C304.895660,333.139679 302.245026,333.139679 299.176331,333.139679 
	C299.176331,335.717499 299.176331,338.049377 299.176331,340.745605 
	C302.017700,340.745605 304.787598,340.745605 307.872192,340.745605 
	C307.872192,343.139648 307.872192,345.197449 307.872192,347.630188 
	C305.083160,347.630188 302.328369,347.630188 299.163574,347.630188 
	C299.163574,350.193329 299.163574,352.404022 299.163574,355.074646 
	C302.606262,355.074646 306.174042,355.074646 309.963715,355.074646 
	C309.963715,357.633423 309.963715,359.744995 309.963715,362.174927 
	C304.075714,362.174927 298.199432,362.174927 292.057281,362.174927 
	C292.057281,350.460449 292.057281,338.733215 292.057281,326.697784 
	C297.673553,326.697784 303.218628,326.697784 309.675934,326.697784 
	C309.218597,328.943390 308.796661,331.015137 307.960510,333.113281 
z"/>
<path fill="#080808" opacity="1.000000" stroke="none" 
	d="
M121.855484,344.707794 
	C124.524666,338.094086 127.098190,331.853088 130.146194,324.461426 
	C135.479843,337.550262 140.370316,349.551544 145.473251,362.074188 
	C142.044571,361.916962 139.477524,363.755432 136.204956,359.915527 
	C134.371841,357.764587 127.508728,357.970062 124.092117,359.595032 
	C119.962807,361.559052 120.503357,362.695557 114.878906,362.046814 
	C117.203407,356.315277 119.481621,350.697906 121.855484,344.707794 
M131.104187,344.514587 
	C130.461273,344.407440 129.296753,344.104095 129.252380,344.222107 
	C128.350861,346.618927 127.577644,349.064026 126.715172,351.693298 
	C129.153183,351.693298 131.111771,351.693298 133.550980,351.693298 
	C132.720062,349.209015 132.058823,347.232086 131.104187,344.514587 
z"/>
<path fill="#101010" opacity="1.000000" stroke="none" 
	d="
M389.301086,362.500000 
	C383.757202,362.506226 378.643402,362.506226 373.293610,362.506226 
	C373.293610,350.395508 373.293610,338.822876 373.293610,326.811157 
	C378.990601,326.811157 384.695740,326.811157 390.768494,326.811157 
	C390.768494,328.687531 390.768494,330.729828 390.768494,333.231750 
	C387.314789,333.231750 383.901947,333.231750 380.291077,333.231750 
	C380.291077,335.926849 380.291077,338.168121 380.291077,340.767395 
	C383.304535,340.767395 386.073944,340.767395 389.231201,340.767395 
	C389.231201,343.159760 389.231201,345.196655 389.231201,347.636902 
	C386.346619,347.636902 383.589905,347.636902 380.432831,347.636902 
	C380.432831,350.218811 380.432831,352.413086 380.432831,354.980042 
	C383.774963,354.980042 387.207336,354.980042 392.072296,354.980042 
	C391.151947,357.933838 390.441559,360.213837 389.301086,362.500000 
z"/>
<path fill="#161616" opacity="1.000000" stroke="none" 
	d="
M187.862808,337.872009 
	C187.503571,333.776459 187.503571,333.776459 179.111359,332.726379 
	C179.111359,330.840607 179.111359,328.924133 179.111359,326.703064 
	C187.273941,326.703064 195.316620,326.703064 203.643768,326.703064 
	C203.643768,328.729095 203.643768,330.636597 203.643768,332.918823 
	C200.880554,333.083984 198.140411,333.247772 194.984360,333.436432 
	C194.984360,342.994598 194.984360,352.390808 194.984360,362.156097 
	C192.495468,362.156097 190.430588,362.156097 187.862961,362.156097 
	C187.862961,354.234863 187.862961,346.311401 187.862808,337.872009 
z"/>
<path fill="#171717" opacity="1.000000" stroke="none" 
	d="
M317.273621,338.029358 
	C317.273621,334.069824 317.273621,330.603882 317.273621,326.742554 
	C319.772491,326.742554 321.968353,326.742554 324.581360,326.742554 
	C324.581360,336.101074 324.581360,345.325439 324.581360,355.111877 
	C328.520813,355.111877 332.075531,355.111877 335.821594,355.111877 
	C335.821594,357.781830 335.821594,359.884644 335.821594,362.262970 
	C329.828613,362.262970 323.921906,362.262970 317.273590,362.262970 
	C317.273590,354.301208 317.273590,346.412079 317.273621,338.029358 
z"/>
<path fill="#ECEDED" opacity="1.000000" stroke="none" 
	d="
M409.721039,333.087921 
	C413.440704,333.144257 416.634277,333.926239 415.803833,338.003632 
	C414.608124,343.874847 409.804077,341.319244 405.274872,341.861023 
	C407.114838,338.579956 401.912079,333.501862 409.721039,333.087921 
z"/>
<path fill="#E9E9E9" opacity="1.000000" stroke="none" 
	d="
M359.460541,337.914673 
	C357.768463,343.938446 353.259064,341.006134 349.537720,342.175201 
	C349.537720,339.004181 349.537720,336.462463 349.537720,333.896454 
	C355.800140,332.085510 358.086243,332.901031 359.460541,337.914673 
z"/>
<path fill="#DFDFDF" opacity="1.000000" stroke="none" 
	d="
M131.250885,344.884857 
	C132.058823,347.232086 132.720062,349.209015 133.550980,351.693298 
	C131.111771,351.693298 129.153183,351.693298 126.715172,351.693298 
	C127.577644,349.064026 128.350861,346.618927 129.252380,344.222107 
	C129.296753,344.104095 130.461273,344.407440 131.250885,344.884857 
z"/>
</svg>